<svg viewBox="0 0 247 90" fill="none" xmlns="http://www.w3.org/2000/svg">
<path d="M152.15 63.6V43.35C152.15 42.3 152.15 41.25 152 40.35C151.85 39.45 151.551 38.55 151.252 37.8C150.953 37.05 150.354 36.6 149.606 36.15C149.008 35.7 148.11 35.55 146.913 35.55C145.866 35.55 144.968 35.85 144.22 36.15C143.472 36.6 142.874 37.2 142.276 37.95C141.827 38.7 141.378 39.6 141.079 40.5C140.78 41.4 140.78 42.45 140.78 43.5V63.6H128.512V42.45C128.512 40.35 128.063 38.55 127.315 37.35C126.417 36.15 125.071 35.55 123.276 35.55C121.331 35.55 119.835 36.3 118.787 37.8C117.74 39.3 117.142 41.25 117.142 43.5V63.75H104.724V26.4H116.543V31.5H116.693C117.142 30.75 117.74 30 118.339 29.25C118.937 28.5 119.835 27.9 120.732 27.3C121.63 26.7 122.677 26.25 123.874 25.95C125.071 25.65 126.268 25.5 127.764 25.5C130.457 25.5 132.701 26.1 134.646 27.15C136.441 28.2 137.937 29.85 138.984 31.8C140.181 29.85 141.827 28.35 143.772 27.15C145.717 25.95 148.11 25.5 150.803 25.5C153.346 25.5 155.441 25.95 157.236 26.85C159.031 27.75 160.378 28.95 161.425 30.45C162.472 31.95 163.22 33.6 163.669 35.4C164.118 37.2 164.417 39 164.417 40.8V63.9H152.15V63.6Z" fill="#F6D912"/>
<path d="M205.709 45.45C205.709 45.9 205.709 46.5 205.709 46.95C205.709 47.4 205.709 47.85 205.559 48.3H178.63C178.78 49.35 179.079 50.25 179.528 51.15C179.976 52.05 180.724 52.8 181.472 53.4C182.22 54 183.268 54.45 184.165 54.9C185.213 55.2 186.26 55.35 187.307 55.35C189.252 55.35 190.898 55.05 192.244 54.3C193.591 53.55 194.638 52.65 195.535 51.45L204.063 56.85C202.268 59.4 200.024 61.35 197.181 62.7C194.339 64.05 191.047 64.8 187.157 64.8C184.315 64.8 181.772 64.35 179.228 63.45C176.685 62.55 174.591 61.35 172.646 59.7C170.85 58.05 169.354 55.95 168.307 53.55C167.26 51.15 166.661 48.3 166.661 45.15C166.661 42.15 167.11 39.3 168.157 36.9C169.205 34.5 170.551 32.4 172.346 30.6C174.142 28.95 176.236 27.6 178.63 26.55C181.024 25.65 183.717 25.2 186.559 25.2C189.252 25.2 191.795 25.65 194.039 26.55C196.283 27.45 198.228 28.8 199.874 30.6C201.52 32.4 202.866 34.5 203.764 36.9C205.26 39.45 205.709 42.3 205.709 45.45ZM194.488 40.8C194.488 38.85 193.89 37.2 192.693 35.85C191.496 34.5 189.701 33.75 187.157 33.75C185.961 33.75 184.913 33.9 183.866 34.35C182.819 34.65 182.071 35.25 181.323 35.85C180.575 36.45 179.976 37.2 179.528 38.1C179.079 39 178.78 39.9 178.78 40.8H194.488Z" fill="#F6D912"/>
<path d="M247 45.45C247 45.9 247 46.5 247 46.95C247 47.4 247 47.85 247 48.3H220.071C220.22 49.35 220.52 50.25 220.968 51.15C221.417 52.05 222.165 52.8 222.913 53.4C223.661 54 224.709 54.45 225.606 54.9C226.654 55.2 227.701 55.35 228.748 55.35C230.693 55.35 232.339 55.05 233.685 54.3C235.031 53.55 236.079 52.65 236.976 51.45L245.504 56.85C243.709 59.4 241.465 61.35 238.622 62.7C235.78 64.05 232.488 64.8 228.598 64.8C225.756 64.8 223.213 64.35 220.669 63.45C218.126 62.55 216.032 61.35 214.087 59.7C212.291 58.05 210.795 55.95 209.748 53.55C208.701 51.15 208.102 48.3 208.102 45.15C208.102 42.15 208.551 39.3 209.598 36.9C210.646 34.5 211.992 32.4 213.787 30.6C215.583 28.95 217.677 27.6 220.071 26.55C222.465 25.65 225.157 25.2 228 25.2C230.693 25.2 233.236 25.65 235.48 26.55C237.724 27.45 239.669 28.8 241.315 30.6C242.961 32.4 244.307 34.5 245.205 36.9C246.551 39.45 247 42.3 247 45.45ZM235.78 40.8C235.78 38.85 235.181 37.2 233.984 35.85C232.787 34.5 230.992 33.75 228.449 33.75C227.252 33.75 226.205 33.9 225.157 34.35C224.11 34.65 223.362 35.25 222.614 35.85C221.866 36.45 221.268 37.2 220.819 38.1C220.37 39 220.071 39.9 220.071 40.8H235.78Z" fill="#F6D912"/>
<path d="M79.7402 40.05C79.7402 17.85 61.937 0 39.9449 0C17.9528 0 0 17.85 0 40.05C0 56.7 10.1732 71.1 24.685 77.1C28.2756 72.75 33.811 70.05 39.7953 70.05C45.9291 70.05 51.315 72.75 54.9055 77.1C69.5669 70.95 79.7402 56.7 79.7402 40.05Z" fill="white"/>
<path d="M24.685 76.95C21.6929 80.4 19.8976 85.05 19.8976 90H59.8425C59.8425 85.05 58.0473 80.55 55.0551 76.95C50.4173 78.9 45.3307 79.95 39.9449 79.95C34.5591 79.95 29.4724 78.9 24.685 76.95Z" fill="#F56038"/>
<path d="M39.9449 70.05C33.811 70.05 28.4252 72.75 24.8346 77.1C29.4724 79.05 34.5591 80.1 39.9449 80.1C45.3307 80.1 50.4173 79.05 55.0551 77.1C51.315 72.75 45.9291 70.05 39.9449 70.05Z" fill="#F6D912"/>
</svg>
