<svg width="1000" height="1000" viewBox="0 0 1000 1000" fill="none" xmlns="http://www.w3.org/2000/svg">
  <path d="M811.137 461.19C811.137 289.286 671.629 150 499.688 150C327.747 150 188 289.286 188 461.19C188 591.19 267.889 702.381 381.404 748.809C410.021 715.476 452.231 694.286 499.688 694.286C547.144 694.286 589.355 715.476 617.972 748.809C731.248 702.381 811.137 591.19 811.137 461.19Z" fill="#F6D912"/>
  <path d="M381.404 748.809C358.033 776.19 343.725 811.429 343.725 850H655.412C655.412 811.429 641.104 776.19 617.972 748.809C581.485 763.809 541.659 772.143 499.688 772.143C457.716 772.143 417.891 763.809 381.404 748.809Z" fill="#3C037C"/>
  <path d="M499.688 694.524C452.231 694.524 410.021 715.715 381.404 749.048C417.891 764.048 457.716 772.381 499.688 772.381C541.66 772.381 581.485 764.048 617.972 749.048C589.355 715.715 546.906 694.524 499.688 694.524Z" fill="#F56038"/>
</svg>
